# xmcd
#
# Track frame offsets:
#   150
#   25007
#   50250
#   65947
#   87920
#   112823
#   134995
#   157107
#   177960
#   202357
#   222715
#   240285
#   265707
#   288278
#
# Disc length: 4147 seconds
#
# Revision: 2
# Processed by: cddbd v1.5PL3 Copyright (c) Steve Scherf et al.
# Submitted via: Media_Universe 3.0
#
DISCID=d710310e
DTITLE=Various Artist - J. Curve Cincinnati Jazz Collection Vol 3
DYEAR=1900
DGENRE=Jazz
TTITLE0=P. Ann Everson-Price - Blues Medley
TTITLE1=Scotty Anderson Quartet- Big Dipper
TTITLE2=Wilbert Longmire - Kansas City
TTITLE3=Latin X-Posure - Salsanati Blue
TTITLE4=Eugene Goss - make Up Your Mind, Baby
TTITLE5=Marc Fields/Randy Villars Quintet - West Coast Blues
TTITLE6=Frank Powers and Bill Gemmer - Whinin' Boy Blues
TTITLE7=Dixie Karas - Since I Fell For You
TTITLE8=Cat City - Friday Night at the Cadillac Club
TTITLE9=Kathy and Mike Wade - Muddy Water
TTITLE10=Sandy Suskind Quartet - Some Other Blues
TTITLE11=Bill Caffie - Stormy Monday
TTITLE12=Steve Schmidt Trio - Inception
TTITLE13=Rusty Burge - Billy's Bounce
EXTD=\n\n
EXTT0=
EXTT1=
EXTT2=
EXTT3=
EXTT4=
EXTT5=
EXTT6=
EXTT7=
EXTT8=
EXTT9=
EXTT10=
EXTT11=
EXTT12=
EXTT13=
PLAYORDER=
